<?xml version="1.0" standalone="no"?>
<!DOCTYPE svg PUBLIC "-//W3C//DTD SVG 20010904//EN"
 "http://www.w3.org/TR/2001/REC-SVG-20010904/DTD/svg10.dtd">
<svg version="1.0" xmlns="http://www.w3.org/2000/svg"
 width="700.000000pt" height="700.000000pt" viewBox="0 0 700.000000 700.000000"
 preserveAspectRatio="xMidYMid meet">
<metadata>
Created by potrace 1.14, written by Peter Selinger 2001-2017
</metadata>
<g transform="translate(0.000000,700.000000) scale(0.100000,-0.100000)"
fill="#000000" stroke="none">
<path d="M1515 6990 c-3 -5 8 -60 25 -122 55 -196 219 -792 225 -818 2 -8 20
-73 40 -145 62 -223 196 -709 200 -726 2 -9 13 -49 24 -90 41 -141 50 -174 62
-219 7 -25 13 -49 15 -55 1 -5 23 -84 48 -175 67 -237 90 -330 82 -337 -3 -3
-43 4 -88 16 -46 13 -90 25 -98 26 -8 2 -145 40 -305 85 -282 79 -305 85 -342
94 -30 7 -386 105 -418 115 -16 5 -82 23 -145 41 -63 17 -275 75 -470 129
-195 54 -358 96 -362 94 -11 -6 -10 -540 0 -547 8 -4 203 -58 502 -137 80 -21
206 -54 280 -74 74 -20 191 -51 260 -70 69 -18 330 -87 580 -155 667 -178 698
-187 782 -210 43 -11 85 -23 95 -25 10 -2 104 -27 208 -55 105 -28 242 -65
305 -81 118 -32 141 -42 124 -58 -5 -5 -97 -32 -204 -61 -107 -28 -406 -108
-665 -177 -259 -68 -495 -131 -525 -139 -30 -8 -97 -26 -148 -40 -51 -14 -100
-27 -110 -29 -13 -3 -214 -57 -257 -69 -5 -2 -23 -6 -40 -11 -16 -4 -122 -32
-235 -62 -113 -30 -290 -77 -395 -104 -104 -28 -213 -57 -241 -65 -28 -8 -61
-16 -72 -19 -11 -2 -54 -13 -94 -24 -40 -11 -92 -25 -115 -31 l-43 -11 0 -273
c0 -150 2 -275 6 -278 3 -3 37 3 77 13 40 11 81 22 92 24 11 3 49 13 85 24 36
11 182 52 325 91 472 130 629 174 1355 377 129 36 250 68 268 70 39 6 41 -6
13 -98 -22 -75 -101 -357 -106 -379 -4 -19 -55 -206 -106 -389 -22 -79 -42
-151 -44 -160 -5 -20 -253 -919 -370 -1341 -25 -91 -48 -174 -50 -185 -3 -11
-11 -43 -20 -70 -8 -28 -15 -56 -15 -62 0 -10 61 -13 274 -13 l275 0 14 53 c8
28 38 140 66 247 29 107 61 227 71 265 35 126 181 674 185 692 2 10 15 61 30
113 14 52 37 136 50 185 161 608 336 1262 345 1290 9 27 18 32 98 54 48 13
151 41 230 64 l142 40 0 43 c1 57 1 884 0 927 0 32 -2 34 -52 46 -29 7 -66 17
-83 22 -16 5 -95 27 -174 49 -80 22 -148 43 -152 47 -6 6 -107 371 -124 443
-4 19 -231 871 -245 920 -31 109 -52 188 -80 295 -36 139 -75 284 -137 515
-24 91 -55 206 -68 255 -46 176 -66 251 -92 343 l-26 92 -268 0 c-166 0 -270
-4 -274 -10z"/>
<path d="M4927 6948 c-8 -29 -43 -159 -77 -288 -34 -129 -79 -298 -100 -375
-21 -77 -64 -237 -95 -355 -32 -118 -84 -314 -117 -435 -33 -121 -61 -227 -63
-235 -2 -8 -69 -261 -149 -560 -80 -300 -146 -551 -146 -557 0 -7 -33 -22 -72
-33 -40 -12 -95 -28 -123 -35 -27 -8 -99 -28 -159 -45 -60 -16 -111 -32 -113
-34 -6 -6 -4 -986 2 -996 4 -6 60 -24 110 -35 38 -9 314 -87 331 -94 14 -6 25
-28 37 -72 9 -35 38 -140 63 -234 25 -93 47 -179 49 -190 3 -11 18 -67 34
-125 16 -58 47 -175 70 -260 22 -85 72 -272 111 -415 177 -664 243 -913 286
-1075 25 -96 49 -186 54 -200 5 -14 25 -87 45 -162 l38 -138 268 0 c150 0 270
4 273 9 4 5 -12 75 -34 156 -23 81 -47 170 -55 199 -25 93 -93 338 -160 581
-37 132 -68 247 -70 255 -2 8 -16 58 -30 110 -15 52 -28 102 -30 110 -2 8 -18
65 -35 125 -17 61 -42 151 -55 200 -14 50 -49 178 -79 285 -30 107 -64 229
-75 270 -11 41 -38 141 -60 222 -44 159 -47 178 -28 178 6 0 95 -23 197 -51
102 -28 210 -57 240 -65 30 -8 109 -30 175 -49 66 -18 154 -43 195 -54 86 -23
172 -46 350 -96 69 -19 181 -50 250 -69 69 -19 199 -55 290 -80 91 -25 245
-68 342 -94 98 -27 180 -47 183 -44 11 11 5 541 -6 548 -6 3 -68 21 -138 40
-204 53 -283 74 -341 90 -30 9 -62 17 -70 19 -8 2 -67 17 -130 35 -63 17 -123
33 -132 35 -10 2 -118 31 -240 64 -123 33 -311 83 -418 111 -107 28 -206 55
-220 60 -14 5 -36 12 -50 14 -14 3 -74 18 -135 35 -128 34 -158 42 -775 208
-256 68 -471 125 -477 126 -7 0 -13 7 -13 16 0 12 43 27 183 64 100 27 189 50
197 52 8 2 51 13 95 25 231 62 498 133 640 171 88 23 201 53 250 66 251 67
495 133 515 137 41 10 228 60 435 116 127 34 271 72 320 85 50 13 176 47 280
75 105 29 200 54 212 57 l22 5 0 274 c0 255 -1 274 -18 274 -10 0 -67 -14
-127 -30 -60 -17 -167 -46 -239 -66 -71 -20 -168 -47 -215 -61 -47 -13 -94
-26 -105 -29 -11 -2 -67 -17 -125 -33 -516 -144 -669 -187 -760 -211 -58 -15
-163 -45 -235 -65 -71 -20 -137 -38 -145 -40 -8 -3 -72 -20 -142 -39 l-128
-35 0 24 c0 12 9 51 19 86 11 35 28 98 40 139 22 85 127 466 226 825 37 132
109 395 161 585 53 190 101 368 109 395 8 28 26 93 40 145 118 429 135 492
129 501 -3 5 -124 9 -274 9 l-269 0 -14 -52z"/>
</g>
</svg>
