<svg xmlns="http://www.w3.org/2000/svg" viewBox="0 0 834.49 56.62"><defs><style>.cls-1{fill:#ff9cb4;}.cls-2{fill:#f6f6f6;}</style></defs><g id="Capa_2" data-name="Capa 2"><g id="Capa_1-2" data-name="Capa 1"><path class="cls-1" d="M6.27,37.61c.16,8,4.27,13.79,16.2,13.79,10.61,0,13.86-3.64,13.86-9.6,0-5.43-2.86-8.14-9.37-9.22L14.8,30.72C5.81,29.4,1.7,25,1.7,17.24,1.7,9,8,2.36,21.3,2.36c13.48,0,20.15,6.82,20.84,16.74H36c-.7-7-5-11.7-14.72-11.7-9.14,0-13,3.95-13,9.68,0,4,1.94,7.21,7.75,8.14l12.86,1.93c9.14,1.48,14,5.5,14,13.79,0,9.84-6,15.5-20.37,15.5C5.73,56.44,0,47.76,0,37.61Z"/><path class="cls-1" d="M109.94,30.33v25h-6.2V31c0-7.83-3.17-10.54-8.83-10.54-8.44,0-12.24,6.66-12.24,20v14.8h-6V31c0-7.83-3.25-10.54-8.91-10.54-8.29,0-12.16,6.66-12.16,20v14.8h-6.2V16.54h6.2v9.53c2.24-6.66,6.66-10.77,14.1-10.77S81.28,19,82.36,26.22C84.61,19.41,89.1,15.3,96.85,15.3,105.68,15.3,109.94,20.41,109.94,30.33Z"/><path class="cls-1" d="M115.77,45.05c0-6.28,3.41-10.23,11.78-11.62l9.83-1.63c4.11-.69,5.81-1.78,5.81-4.72,0-3.95-2-7-9.52-7s-10.46,3.57-10.85,8.6H116.7c.23-8.21,6-13.48,16.73-13.48s15.42,4.88,15.42,11.86V45.67a92.6,92.6,0,0,0,.46,9.61h-5.65c-.31-3.34-.54-6.2-.54-9.07-1.48,4.65-5.58,10.07-14.57,10.07C121.12,56.28,115.77,52.41,115.77,45.05Zm27.42-8.13V33.58c-1.93,1.4-4,2-7,2.64l-6.43,1.32c-5.27,1.08-7.75,3.09-7.75,7.28,0,4.41,3.18,6.58,7.75,6.58C138.93,51.4,143.19,44.27,143.19,36.92Z"/><path class="cls-1" d="M177.91,16v6.12h-1.62c-11.47-.39-13.95,8-13.95,18.9V55.28h-6.2V16.54h6.2V26.77C164.67,20.34,169.16,16,176.52,16Z"/><path class="cls-1" d="M187.7,46.21V21.42h-7.36V17.94l7.9-1.94,2.33-8.06h3.33v8.6h12.78v4.88H193.9V50.24h12.32v5h-9.14C189.64,55.28,187.7,52.41,187.7,46.21Z"/><path class="cls-2" d="M252.46,56.36q-10.07,0-16.62-5.77T229.3,33.82a36.13,36.13,0,0,1,3.49-15.92A28.61,28.61,0,0,1,243.4,6.08,30.07,30.07,0,0,1,260,1.51a39.63,39.63,0,0,1,8.32.78,30,30,0,0,1,5.46,1.59,9.56,9.56,0,0,0,2.25.81c.83,0,1.63-.82,2.4-2.48h2.33L275.93,19h-2.32a29.13,29.13,0,0,0,.23-3.48q0-11.4-13.86-11.39a24.12,24.12,0,0,0-11.47,2.67,21.47,21.47,0,0,0-8,7.09,34.7,34.7,0,0,0-4.45,9.53A36.88,36.88,0,0,0,234.57,34q0,10.16,5.15,15a17.74,17.74,0,0,0,12.59,4.81,14.54,14.54,0,0,0,10-3.8q4.26-3.8,8.13-13.09h2.33l-4.42,15.41A32.33,32.33,0,0,1,252.46,56.36Z"/><path class="cls-2" d="M287.43,56.36q-10.55,0-10.54-11.78a27.79,27.79,0,0,1,1.82-9.48A37.56,37.56,0,0,1,283.48,26a22.55,22.55,0,0,1,6.43-6.12,13.8,13.8,0,0,1,7.28-2.24q10.46,0,10.46,11.77A28,28,0,0,1,305.83,39a36.39,36.39,0,0,1-4.77,9,23.62,23.62,0,0,1-6.43,6.12A13.36,13.36,0,0,1,287.43,56.36ZM287,54.11q6.34,0,11.7-10.38a49.53,49.53,0,0,0,3.41-9,31.31,31.31,0,0,0,1.31-7.83,7.34,7.34,0,0,0-1.7-5.3,5.74,5.74,0,0,0-4.26-1.75q-6.44,0-11.62,10.38a49.33,49.33,0,0,0-3.41,9,30.86,30.86,0,0,0-1.32,7.94c0,2.38.57,4.13,1.71,5.27A5.66,5.66,0,0,0,287,54.11Z"/><path class="cls-2" d="M336.65,56a4.62,4.62,0,0,1-3.1-1.12,4.09,4.09,0,0,1-1.32-3.29,11.28,11.28,0,0,1,1.09-4.5l6.89-16.26A16.88,16.88,0,0,0,341.84,25q0-3.49-3.8-3.49-2.79,0-6,3.06a37.38,37.38,0,0,0-6.2,8.13,115.24,115.24,0,0,0-5.58,10.81q-2.6,5.73-4.68,11.78h-3.72l8.21-27.89a21.59,21.59,0,0,0,.93-4.34c0-1-.49-1.55-1.47-1.55q-2.79,0-7.13,7.05l-1.55-.39q4.72-10.53,10.23-10.53,3.87,0,3.87,4.1,0,2.57-6.12,18.52h1Q325.72,28.31,330.26,23t9-5.34q6.59,0,6.59,6.12a21.53,21.53,0,0,1-2.17,8.13L338.51,44q-2,4.8-2,6.35c0,1.19.52,1.78,1.55,1.78q2.79,0,7-7.13l1.55.39Q341.92,56,336.65,56Z"/><path class="cls-2" d="M355.2,56.36a11,11,0,0,1-5.65-1.28,4.14,4.14,0,0,1-1.32-6.16,3.06,3.06,0,0,1,2.48-1c1.44,0,2.48.82,3.1,2.48a6.1,6.1,0,0,1,.5,1.31,10.14,10.14,0,0,0,.66,1.71,9.54,9.54,0,0,0,.93,1.47,9.17,9.17,0,0,0,5.61-2.06,5.67,5.67,0,0,0,1.9-4.37,7.79,7.79,0,0,0-.58-3A35,35,0,0,0,360.39,41l-2.79-4.57a40.37,40.37,0,0,1-2.86-5.15,9.45,9.45,0,0,1-.78-3.76,8.72,8.72,0,0,1,3.45-7.16,13,13,0,0,1,8.4-2.75,10.75,10.75,0,0,1,5.62,1.28,3.92,3.92,0,0,1,2.13,3.52q0,3.64-3.33,3.64c-1.34,0-2.38-.82-3.1-2.48a6.33,6.33,0,0,1-.5-1.31,10.14,10.14,0,0,0-.66-1.71A9.09,9.09,0,0,0,365,19.1a9.33,9.33,0,0,0-5.58,2,5.64,5.64,0,0,0-1.94,4.38,7.53,7.53,0,0,0,.59,2.94,35.39,35.39,0,0,0,2.51,4.5l2.79,4.57a42.61,42.61,0,0,1,2.79,5.07,9.61,9.61,0,0,1,.78,3.83,8.78,8.78,0,0,1-3.41,7.17A13,13,0,0,1,355.2,56.36Z"/><path class="cls-2" d="M382.56,56.36a9.79,9.79,0,0,1-7.05-2.52c-1.75-1.67-2.63-4.22-2.63-7.63a31.44,31.44,0,0,1,2.94-12.7,33.53,33.53,0,0,1,7.94-11.27q5-4.6,10.11-4.61a9.25,9.25,0,0,1,5.89,1.62,5.23,5.23,0,0,1,2,4.26,5,5,0,0,1-1,3.3,3.38,3.38,0,0,1-2.72,1.2q-2.79,0-3.33-3.1c0-.1,0-.83-.11-2.17a9.7,9.7,0,0,0-.58-3.1q-4.35.16-8.45,4.22a29.07,29.07,0,0,0-6.43,9.76,28.63,28.63,0,0,0-2.32,10.81q0,3.95,1.9,5.81a6.91,6.91,0,0,0,5.07,1.86A9.42,9.42,0,0,0,389.57,50a17.08,17.08,0,0,0,4.69-5.81l1.7.54c-.62,1.29-1.11,2.3-1.47,3a28,28,0,0,1-1.82,3,13,13,0,0,1-2.52,2.91,13.52,13.52,0,0,1-3.25,1.86A11,11,0,0,1,382.56,56.36Z"/><path class="cls-2" d="M406.68,56q-4.28,0-4.27-4,0-2.79,2.25-7.74L412,27.62q2.72-6.12-.46-6.12-3,0-7.21,7.28l-1.63-.46q4.81-10.69,10.38-10.69c2.84,0,4.27,1.34,4.27,4,0,1.85-.75,4.44-2.25,7.74L407.76,46c-1.81,4.08-1.65,6.12.46,6.12s4.37-2.43,7.21-7.28l1.63.46Q412.25,56,406.68,56ZM421.82,8.91a4.12,4.12,0,0,1-5.81,0,4,4,0,0,1-1.2-2.9A4,4,0,0,1,416,3.1a4.12,4.12,0,0,1,5.81,0A4,4,0,0,1,423,6,4,4,0,0,1,421.82,8.91Z"/><path class="cls-2" d="M430.87,56.36q-10.55,0-10.54-11.78a27.79,27.79,0,0,1,1.82-9.48A37.21,37.21,0,0,1,426.92,26a22.42,22.42,0,0,1,6.43-6.12,13.8,13.8,0,0,1,7.28-2.24q10.46,0,10.45,11.77A27.77,27.77,0,0,1,449.26,39a36,36,0,0,1-4.76,9,23.76,23.76,0,0,1-6.43,6.12A13.39,13.39,0,0,1,430.87,56.36Zm-.39-2.25q6.34,0,11.7-10.38a48.78,48.78,0,0,0,3.4-9,31,31,0,0,0,1.32-7.83,7.34,7.34,0,0,0-1.7-5.3,5.74,5.74,0,0,0-4.26-1.75q-6.44,0-11.62,10.38a49.33,49.33,0,0,0-3.41,9,30.86,30.86,0,0,0-1.32,7.94c0,2.38.57,4.13,1.71,5.27A5.66,5.66,0,0,0,430.48,54.11Z"/><path class="cls-2" d="M462,56.36a7.79,7.79,0,0,1-5.11-1.59A5.8,5.8,0,0,1,455,50c0-2.17.91-5.17,2.71-9l5.89-12.47a14.14,14.14,0,0,0,1.55-5.34c0-1.14-.52-1.71-1.55-1.71q-2.79,0-7.13,7.05l-1.54-.39q4.71-10.53,10.22-10.53,4.33,0,4.34,4a17.14,17.14,0,0,1-1.78,6.27L461,42.42q-2,4.34-2,6.35,0,3.33,3.72,3.33t8.21-5.38A64.23,64.23,0,0,0,479.06,34a136.12,136.12,0,0,0,6.51-15.45h3.64l-8,27a22.46,22.46,0,0,0-1,5c0,1,.57,1.55,1.7,1.55q2.56,0,6.74-6.89l1.55.46q-4.72,10.53-10.22,10.54a4.25,4.25,0,0,1-2.87-1.09,3.79,3.79,0,0,1-1.24-3,16.58,16.58,0,0,1,1.05-5.23q1-3.06,5.38-13.29h-1q-5.73,11.55-10.34,17.16T462,56.36Z"/><path class="cls-2" d="M498.48,56.36a11.08,11.08,0,0,1-5.66-1.28,3.91,3.91,0,0,1-2.17-3.52,4,4,0,0,1,.85-2.64,3.08,3.08,0,0,1,2.48-1c1.45,0,2.48.82,3.1,2.48a6,6,0,0,1,.51,1.31,10.13,10.13,0,0,0,.65,1.71,9.54,9.54,0,0,0,.93,1.47,9.22,9.22,0,0,0,5.62-2.06,5.7,5.7,0,0,0,1.9-4.37,8,8,0,0,0-.58-3A35,35,0,0,0,503.67,41l-2.79-4.57A40.72,40.72,0,0,1,498,31.3a9.44,9.44,0,0,1-.77-3.76,8.74,8.74,0,0,1,3.44-7.16,13,13,0,0,1,8.41-2.75,10.74,10.74,0,0,1,5.61,1.28,3.93,3.93,0,0,1,2.14,3.52c0,2.43-1.12,3.64-3.34,3.64-1.34,0-2.37-.82-3.09-2.48a5.71,5.71,0,0,1-.51-1.31,10.14,10.14,0,0,0-.66-1.71,8.45,8.45,0,0,0-.93-1.47,9.33,9.33,0,0,0-5.57,2,5.61,5.61,0,0,0-1.94,4.38,7.52,7.52,0,0,0,.58,2.94A37.2,37.2,0,0,0,503.9,33l2.79,4.57a42.61,42.61,0,0,1,2.79,5.07,9.78,9.78,0,0,1,.77,3.83,8.78,8.78,0,0,1-3.41,7.17A12.9,12.9,0,0,1,498.48,56.36Z"/><path class="cls-1" d="M534.35,29c0-15.79,8.29-27.64,26.37-27.64,16.19,0,23.53,8,24.8,21h-6.64c-1.1-10.27-7-15.56-18.32-15.56-13.11,0-19.34,7.5-19.34,22.19s6.08,22.19,19.19,22.19c11.92,0,17.92-6.16,18.63-16.82h6.71c-.87,13.35-8.37,22.27-25.19,22.27C542.48,56.62,534.35,44.93,534.35,29Z"/><path class="cls-1" d="M590.22,35.46c0-11.77,6.55-20.93,19.9-20.93s19.82,9.24,19.82,20.93-6.55,21.08-19.82,21.08S590.22,47.38,590.22,35.46Zm19.9,15.95c8.92,0,13.42-4.82,13.42-15.88S619,19.66,610.12,19.66s-13.5,4.74-13.5,15.87S601.2,51.41,610.12,51.41Z"/><path class="cls-1" d="M697.64,29.85V55.28h-6.31V30.56c0-8-3.24-10.74-9-10.74-8.6,0-12.47,6.79-12.47,20.37V55.28h-6.16V30.56c0-8-3.32-10.74-9.08-10.74-8.45,0-12.4,6.79-12.4,20.37V55.28h-6.32V15.79h6.32v9.72c2.29-6.8,6.79-11,14.37-11s11.85,3.79,12.95,11.13c2.29-6.95,6.87-11.13,14.77-11.13C693.3,14.53,697.64,19.74,697.64,29.85Z"/><path class="cls-1" d="M707.68,20.77h-6.63V17.21l6.63-1.65V8c0-5.29,2.45-8,10-8h10V4.82H713.52v11h12v5H714V55.28h-6.32Z"/><path class="cls-1" d="M726.6,35.46c0-11.77,6.55-20.93,19.9-20.93s19.82,9.24,19.82,20.93-6.56,21.08-19.82,21.08S726.6,47.38,726.6,35.46Zm19.9,15.95c8.92,0,13.42-4.82,13.42-15.88s-4.5-15.87-13.42-15.87S733,24.4,733,35.53,737.57,51.41,746.5,51.41Z"/><path class="cls-1" d="M794.46,15.24v6.24H792.8c-11.69-.4-14.21,8.13-14.21,19.27V55.28h-6.32V15.79h6.32V26.22c2.37-6.56,6.95-11,14.45-11Z"/><path class="cls-1" d="M804.44,46V20.77h-7.5V17.21l8-2L807.36,7h3.4v8.76h13v5h-13V50.14h12.55v5.14H814C806.41,55.28,804.44,52.35,804.44,46Z"/><path class="cls-1" d="M826.28,48.33h8.21v7h-8.21Z"/></g></g></svg>