<svg xmlns="http://www.w3.org/2000/svg" viewBox="0 0 198.81 198.81"><defs><style>.cls-1{fill:#ff9cb4;}</style></defs><g id="Capa_2" data-name="Capa 2"><g id="Capa_1-2" data-name="Capa 1"><path class="cls-1" d="M93.13,85,80.51,81.53a.48.48,0,0,1-.34-.35L58.57.37A.5.5,0,0,0,58.09,0H43.36a.48.48,0,0,0-.47.62l20.79,75.5a.49.49,0,0,1-.6.61L.62,59.52A.5.5,0,0,0,0,60V74.73a.5.5,0,0,0,.37.48L68.44,93.4l0,.06h0a.38.38,0,0,1,.21,0l20.39,5.44a.49.49,0,0,1,0,1l-20.6,5.49h0L.38,123.49A.48.48,0,0,0,0,124v14.87a.49.49,0,0,0,.62.47L63.11,122a.49.49,0,0,1,.6.61l-20.82,75.6a.49.49,0,0,0,.47.63H58.09a.5.5,0,0,0,.48-.37l21.64-81a.45.45,0,0,1,.34-.34l12.59-3.5a.48.48,0,0,0,.36-.47V85.48A.5.5,0,0,0,93.13,85Z"/><path class="cls-1" d="M198.81,138.8V124.07a.48.48,0,0,0-.36-.47l-68.09-18.2,0-.05h0a.54.54,0,0,1-.22,0l-20.39-5.45a.49.49,0,0,1,0-1l20.58-5.48h0l68.08-18.13a.5.5,0,0,0,.37-.48V60a.49.49,0,0,0-.63-.47L135.69,76.83a.49.49,0,0,1-.61-.6L155.91.62a.49.49,0,0,0-.47-.62H140.71a.49.49,0,0,0-.48.37L118.59,81.32a.5.5,0,0,1-.34.35l-12.58,3.49a.49.49,0,0,0-.36.47v27.7a.49.49,0,0,0,.36.47l12.6,3.47a.51.51,0,0,1,.35.35l21.6,80.82a.49.49,0,0,0,.48.37h14.73a.49.49,0,0,0,.47-.63l-20.8-75.5a.49.49,0,0,1,.6-.61l62.47,17.21A.5.5,0,0,0,198.81,138.8Z"/></g></g></svg>