<svg width="1440" height="900" viewBox="0 0 1440 900" fill="none" xmlns="http://www.w3.org/2000/svg">
<path d="M1350.8 255.67H89.2V644.34H1350.8V255.67Z" stroke="black" stroke-width="0.8" stroke-miterlimit="10" stroke-dasharray="3.18 3.18"/>
<path d="M271.4 255.67V643.94" stroke="black" stroke-width="0.8" stroke-miterlimit="10" stroke-dasharray="3.18 3.18"/>
<path d="M297.6 256.06V644.33" stroke="black" stroke-width="0.8" stroke-miterlimit="10" stroke-dasharray="3.18 3.18"/>
<path d="M511.3 255.67V643.94" stroke="black" stroke-width="0.8" stroke-miterlimit="10" stroke-dasharray="3.18 3.18"/>
<path d="M537.77 256.06V644.33" stroke="black" stroke-width="0.8" stroke-miterlimit="10" stroke-dasharray="3.18 3.18"/>
<path d="M731.48 255.67V643.94" stroke="black" stroke-width="0.8" stroke-miterlimit="10" stroke-dasharray="3.18 3.18"/>
<path d="M757.56 256.06V644.33" stroke="black" stroke-width="0.8" stroke-miterlimit="10" stroke-dasharray="3.18 3.18"/>
<path d="M946.27 255.67V643.94" stroke="black" stroke-width="0.8" stroke-miterlimit="10" stroke-dasharray="3.18 3.18"/>
<path d="M972.51 256.06V644.33" stroke="black" stroke-width="0.8" stroke-miterlimit="10" stroke-dasharray="3.18 3.18"/>
<path d="M1139.03 255.67V643.94" stroke="black" stroke-width="0.8" stroke-miterlimit="10" stroke-dasharray="3.18 3.18"/>
<path d="M1165.27 256.06V644.33" stroke="black" stroke-width="0.8" stroke-miterlimit="10" stroke-dasharray="3.18 3.18"/>
<path d="M274.08 383.98H268.72V389.34H274.08V383.98Z" fill="black"/>
<path d="M92.02 346.24H86.66V351.6H92.02V346.24Z" fill="black"/>
<path d="M274.08 346.24H268.72V351.6H274.08V346.24Z" fill="black"/>
<path d="M153.08 342.35H147.72V347.71H153.08V342.35Z" fill="black"/>
<path d="M216.41 342.35H211.05V347.71H216.41V342.35Z" fill="black"/>
<path d="M1167.95 346.24H1162.59V351.6H1167.95V346.24Z" fill="black"/>
<path d="M1353.34 346.24H1347.98V351.6H1353.34V346.24Z" fill="black"/>
<path d="M1229.01 342.35H1223.65V347.71H1229.01V342.35Z" fill="black"/>
<path d="M1292.28 342.35H1286.92V347.71H1292.28V342.35Z" fill="black"/>
<path d="M92.02 548.27H86.66V553.63H92.02V548.27Z" fill="black"/>
<path d="M274.08 548.27H268.72V553.63H274.08V548.27Z" fill="black"/>
<path d="M1167.95 548.27H1162.59V553.63H1167.95V548.27Z" fill="black"/>
<path d="M1292.28 552.16H1286.92V557.52H1292.28V552.16Z" fill="black"/>
<path d="M1260.64 304.05H1255.28V309.41H1260.64V304.05Z" fill="black"/>
<path d="M1260.64 248.55H1255.28V253.91H1260.64V248.55Z" fill="black"/>
<path d="M1260.64 645.96H1255.28V651.32H1260.64V645.96Z" fill="black"/>
<path d="M1260.64 590.46H1255.28V595.82H1260.64V590.46Z" fill="black"/>
<path d="M1353.34 548.27H1347.98V553.63H1353.34V548.27Z" fill="black"/>
<path d="M1229.01 552.16H1223.65V557.52H1229.01V552.16Z" fill="black"/>
<path d="M153.08 552.16H147.72V557.52H153.08V552.16Z" fill="black"/>
<path d="M216.41 552.16H211.05V557.52H216.41V552.16Z" fill="black"/>
<path d="M216.41 383.98H211.05V389.34H216.41V383.98Z" fill="black"/>
<path d="M274.08 496.65H268.72V502.01H274.08V496.65Z" fill="black"/>
<path d="M216.41 496.65H211.05V502.01H216.41V496.65Z" fill="black"/>
<path d="M183.05 304.05H177.69V309.41H183.05V304.05Z" fill="black"/>
<path d="M183.05 589.9H177.69V595.26H183.05V589.9Z" fill="black"/>
<path d="M183.05 645.96H177.69V651.32H183.05V645.96Z" fill="black"/>
<path d="M183.05 248.55H177.69V253.91H183.05V248.55Z" fill="black"/>
<path d="M300.28 641.52H294.92V646.88H300.28V641.52Z" fill="black"/>
<path d="M513.98 641.52H508.62V646.88H513.98V641.52Z" fill="black"/>
<path d="M452.37 641.52H447.01V646.88H452.37V641.52Z" fill="black"/>
<path d="M404.08 321.81H398.72V327.17H404.08V321.81Z" fill="black"/>
<path d="M356.34 641.52H350.98V646.88H356.34V641.52Z" fill="black"/>
<path d="M362.45 252.99H357.09V258.35H362.45V252.99Z" fill="black"/>
<path d="M433.49 518.3H428.13V523.66H433.49V518.3Z" fill="black"/>
<path d="M441.82 571.03H436.46V576.39H441.82V571.03Z" fill="black"/>
<path d="M366.89 571.03H361.53V576.39H366.89V571.03Z" fill="black"/>
<path d="M374.66 518.3H369.3V523.66H374.66V518.3Z" fill="black"/>
<path d="M451.81 252.99H446.45V258.35H451.81V252.99Z" fill="black"/>
<path d="M540.45 252.99H535.09V258.35H540.45V252.99Z" fill="black"/>
<path d="M540.45 641.52H535.09V646.88H540.45V641.52Z" fill="black"/>
<path d="M595.4 641.52H590.04V646.88H595.4V641.52Z" fill="black"/>
<path d="M595.4 360.11H590.04V365.47H595.4V360.11Z" fill="black"/>
<path d="M679.76 485.55H674.4V490.91H679.76V485.55Z" fill="black"/>
<path d="M671.44 641.52H666.08V646.88H671.44V641.52Z" fill="black"/>
<path d="M616.89 252.99H611.53V258.35H616.89V252.99Z" fill="black"/>
<path d="M679.76 252.99H674.4V258.35H679.76V252.99Z" fill="black"/>
<path d="M734.16 252.99H728.8V258.35H734.16V252.99Z" fill="black"/>
<path d="M760.24 252.99H754.88V258.35H760.24V252.99Z" fill="black"/>
<path d="M948.95 252.99H943.59V258.35H948.95V252.99Z" fill="black"/>
<path d="M948.95 308.49H943.59V313.85H948.95V308.49Z" fill="black"/>
<path d="M975.19 252.99H969.83V258.35H975.19V252.99Z" fill="black"/>
<path d="M975.19 641.52H969.83V646.88H975.19V641.52Z" fill="black"/>
<path d="M1141.71 641.52H1136.35V646.88H1141.71V641.52Z" fill="black"/>
<path d="M1141.71 252.99H1136.35V258.35H1141.71V252.99Z" fill="black"/>
<path d="M1141.71 308.49H1136.35V313.85H1141.71V308.49Z" fill="black"/>
<path d="M1036.25 308.49H1030.89V313.85H1036.25V308.49Z" fill="black"/>
<path d="M1036.25 416.39H1030.89V421.75H1036.25V416.39Z" fill="black"/>
<path d="M1120.06 416.39H1114.7V421.75H1120.06V416.39Z" fill="black"/>
<path d="M1120.06 472.23H1114.7V477.59H1120.06V472.23Z" fill="black"/>
<path d="M1036.25 472.23H1030.89V477.59H1036.25V472.23Z" fill="black"/>
<path d="M1036.25 586.02H1030.89V591.38H1036.25V586.02Z" fill="black"/>
<path d="M1141.71 586.02H1136.35V591.38H1141.71V586.02Z" fill="black"/>
<path d="M734.16 641.52H728.8V646.88H734.16V641.52Z" fill="black"/>
<path d="M824.07 641.52H818.71V646.88H824.07V641.52Z" fill="black"/>
<path d="M885.12 641.52H879.76V646.88H885.12V641.52Z" fill="black"/>
<path d="M885.12 308.49H879.76V313.85H885.12V308.49Z" fill="black"/>
<path d="M760.24 308.49H754.88V313.85H760.24V308.49Z" fill="black"/>
<path d="M824.07 308.49H818.71V313.85H824.07V308.49Z" fill="black"/>
<path d="M91.88 255.67C91.88 254.19 90.6801 252.99 89.2 252.99C87.7199 252.99 86.52 254.19 86.52 255.67C86.52 257.15 87.7199 258.35 89.2 258.35C90.6801 258.35 91.88 257.15 91.88 255.67Z" stroke="black" stroke-width="0.8" stroke-miterlimit="10"/>
<path d="M89.2 245.82V265.51" stroke="black" stroke-width="0.8" stroke-miterlimit="10"/>
<path d="M79.36 255.67H99.04" stroke="black" stroke-width="0.8" stroke-miterlimit="10"/>
<path d="M91.88 644.33C91.88 642.85 90.6801 641.65 89.2 641.65C87.7199 641.65 86.52 642.85 86.52 644.33C86.52 645.81 87.7199 647.01 89.2 647.01C90.6801 647.01 91.88 645.81 91.88 644.33Z" stroke="black" stroke-width="0.8" stroke-miterlimit="10"/>
<path d="M89.2 634.49V654.18" stroke="black" stroke-width="0.8" stroke-miterlimit="10"/>
<path d="M79.36 644.33H99.04" stroke="black" stroke-width="0.8" stroke-miterlimit="10"/>
<path d="M1353.48 255.67C1353.48 254.19 1352.28 252.99 1350.8 252.99C1349.32 252.99 1348.12 254.19 1348.12 255.67C1348.12 257.15 1349.32 258.35 1350.8 258.35C1352.28 258.35 1353.48 257.15 1353.48 255.67Z" stroke="black" stroke-width="0.8" stroke-miterlimit="10"/>
<path d="M1350.8 245.82V265.51" stroke="black" stroke-width="0.8" stroke-miterlimit="10"/>
<path d="M1340.96 255.67H1360.64" stroke="black" stroke-width="0.8" stroke-miterlimit="10"/>
<path d="M1353.48 644.33C1353.48 642.85 1352.28 641.65 1350.8 641.65C1349.32 641.65 1348.12 642.85 1348.12 644.33C1348.12 645.81 1349.32 647.01 1350.8 647.01C1352.28 647.01 1353.48 645.81 1353.48 644.33Z" stroke="black" stroke-width="0.8" stroke-miterlimit="10"/>
<path d="M1350.8 634.49V654.18" stroke="black" stroke-width="0.8" stroke-miterlimit="10"/>
<path d="M1340.96 644.33H1360.64" stroke="black" stroke-width="0.8" stroke-miterlimit="10"/>
</svg>
